<?xml version="1.0" encoding="UTF-8"?>
<svg width="347px" height="412px" viewBox="0 0 347 412" version="1.1" xmlns="http://www.w3.org/2000/svg" xmlns:xlink="http://www.w3.org/1999/xlink">
    <title>Combined Shape</title>
    <g id="1-Screens" stroke="none" stroke-width="1" fill="none" fill-rule="evenodd">
        <g id="iPhone-14-Copy-16" transform="translate(-22, -104)" fill="#FF850F">
            <path d="M24.526,433 L24.526699,513 L113,513 L113,516 L22,516 L22,433 L24.526,433 Z M369,433 L369,516 L284,516 L284,513 L366.473301,513 L366.473,433 L369,433 Z M113,104 L113,107 L24.526699,107 L24.526,187 L22,187 L22,104 L113,104 Z M369,104 L369,186.999 L366.473,186.999 L366.473301,107 L284,107 L284,104 L369,104 Z" id="Combined-Shape"></path>
        </g>
    </g>
</svg>